<svg width="269" height="116" viewBox="0 0 269 116" xmlns="http://www.w3.org/2000/svg"><title>E0682F38-7874-4EAA-A8A2-B9818049C698</title><g fill="none" fill-rule="evenodd"><path d="M50.02 64.272c0 1.831-.722 2.997-2.167 3.496l2.89 4.052h-3.112l-2.501-3.608H43.35v3.608h-2.5V60.498h4.279c1.778 0 3.001.277 3.78.888.722.61 1.11 1.554 1.11 2.886zm-3.056 1.332c.333-.278.444-.722.444-1.332 0-.61-.166-1-.5-1.277-.333-.222-.889-.333-1.723-.333h-1.834v3.33h1.834c.89 0 1.445-.11 1.779-.388zM60.636 67.435c0 1.277-.444 2.332-1.334 3.164-.889.888-1.945 1.277-3.279 1.277-1.334 0-2.445-.444-3.279-1.277-.89-.888-1.334-1.943-1.334-3.164 0-1.276.445-2.33 1.334-3.163.89-.888 1.945-1.277 3.28-1.277 1.333 0 2.445.444 3.278 1.277.89.888 1.334 1.942 1.334 3.163zm-6.78 0c0 .722.222 1.277.61 1.721.39.444.946.666 1.557.666.612 0 1.167-.222 1.556-.666.39-.444.612-1 .612-1.72 0-.722-.223-1.277-.612-1.721-.389-.444-.944-.666-1.556-.666-.611 0-1.167.222-1.556.666-.39.444-.611 1.054-.611 1.72zM63.637 75.206c-.833 0-1.667-.333-2.39-1.055l1.112-1.776c.39.389.834.61 1.278.61a.611.611 0 0 0 .556-.332c.167-.222.222-.444.222-.722 0-.222-1.111-3.219-3.39-8.88h2.612l2.112 5.439 2.112-5.44h2.613L66.416 73.32a2.771 2.771 0 0 1-1.111 1.387c-.5.333-1.056.5-1.668.5M78.866 71.82h-2.279v-1.054c-.611.777-1.39 1.165-2.334 1.165-.945 0-1.723-.277-2.334-.777-.612-.555-.945-1.221-.945-2.109 0-.888.333-1.554.945-1.998.667-.444 1.556-.666 2.667-.666h1.834v-.056c0-.943-.5-1.387-1.445-1.387-.444 0-.889.11-1.333.277-.445.167-.89.389-1.168.61l-1.111-1.553c1.167-.833 2.445-1.221 3.89-1.221 1.056 0 1.946.277 2.612.777.667.555 1 1.387 1 2.497v5.495zm-2.446-3.33v-.444h-1.5c-.945 0-1.445.277-1.445.888 0 .333.111.555.333.722.223.166.556.277 1 .277.445 0 .834-.111 1.168-.389a1.42 1.42 0 0 0 .444-1.054zM81.033 59.832h2.445v11.989h-2.445zM95.262 69.6c1.222 0 2.278-.5 3.056-1.443l1.612 1.665c-1.278 1.443-2.779 2.165-4.557 2.165-1.723 0-3.168-.555-4.28-1.665-1.111-1.11-1.667-2.498-1.667-4.163s.556-3.053 1.723-4.218c1.167-1.11 2.556-1.665 4.224-1.665 1.834 0 3.39.721 4.668 2.109l-1.556 1.776c-.778-1-1.778-1.499-3.001-1.499-.945 0-1.779.333-2.446.944-.667.61-1 1.443-1 2.497 0 1.055.333 1.887.945 2.553a3.15 3.15 0 0 0 2.279.944M109.99 67.435c0 1.277-.445 2.332-1.334 3.164-.89.888-1.945 1.277-3.28 1.277-1.333 0-2.445-.444-3.278-1.277-.89-.888-1.334-1.943-1.334-3.164 0-1.276.444-2.33 1.334-3.163.889-.888 1.945-1.277 3.279-1.277 1.334 0 2.445.444 3.279 1.277.89.888 1.334 1.942 1.334 3.163zm-6.78 0c0 .722.222 1.277.61 1.721.39.444.945.666 1.557.666.611 0 1.167-.222 1.556-.666.39-.444.611-1 .611-1.72 0-.722-.222-1.277-.61-1.721-.39-.444-.946-.666-1.557-.666-.612 0-1.167.222-1.556.666-.39.444-.612 1.054-.612 1.72zM111.713 59.832h2.445v11.989h-2.445zM116.326 59.832h2.445v11.989h-2.445zM128.498 70.544c-1 .943-2.112 1.387-3.446 1.387s-2.39-.388-3.28-1.221c-.889-.832-1.278-1.887-1.278-3.275 0-1.387.445-2.442 1.334-3.274.89-.833 1.945-1.221 3.112-1.221 1.223 0 2.224.388 3.057 1.11.834.721 1.279 1.72 1.279 2.997v1.276h-6.336c.055.5.333.888.722 1.166.445.278.89.444 1.445.444.834 0 1.556-.277 2.112-.833l1.279 1.444zm-2.335-5.162a1.833 1.833 0 0 0-1.223-.444c-.5 0-.944.166-1.333.444-.39.277-.612.666-.723 1.165h3.835c0-.5-.222-.888-.556-1.165zM137.335 70.322c-.779.832-1.723 1.276-2.835 1.276-1.112 0-2.112-.388-2.89-1.165s-1.167-1.777-1.167-3.109c0-1.276.389-2.33 1.222-3.163.779-.833 1.723-1.221 2.78-1.221 1.055 0 1.89.444 2.556 1.276v-1.165h2.445v7.604c0 .777-.11 1.443-.389 2.053a4.057 4.057 0 0 1-1.056 1.443c-.889.722-1.945 1.055-3.168 1.055a6.302 6.302 0 0 1-2-.333c-.667-.222-1.279-.5-1.779-.888l.945-1.832c.778.61 1.667.888 2.557.888.889 0 1.611-.222 2.112-.666.389-.388.667-1.054.667-2.053zM137 67.269c0-.722-.167-1.221-.556-1.665a2.02 2.02 0 0 0-1.445-.61c-.556 0-1.056.221-1.5.61-.39.388-.612.943-.612 1.61 0 .665.223 1.22.612 1.664.389.444.889.666 1.5.666a2.02 2.02 0 0 0 1.445-.61c.334-.389.556-.944.556-1.665zM149.173 70.544c-1 .943-2.112 1.387-3.446 1.387s-2.39-.388-3.28-1.221c-.889-.832-1.278-1.887-1.278-3.275 0-1.387.445-2.442 1.334-3.274.89-.833 1.89-1.221 3.113-1.221 1.222 0 2.223.388 3.057 1.11.833.721 1.278 1.72 1.278 2.997v1.276h-6.336c.055.5.333.888.722 1.166.445.278.89.444 1.445.444.834 0 1.557-.277 2.112-.833l1.279 1.444zm-2.335-5.162a1.833 1.833 0 0 0-1.222-.444c-.5 0-.945.166-1.334.444-.39.277-.612.666-.723 1.165h3.835c-.055-.5-.222-.888-.556-1.165zM164.401 67.435c0 1.277-.444 2.332-1.334 3.164-.889.888-1.945 1.277-3.279 1.277-1.334 0-2.445-.444-3.279-1.277-.89-.888-1.334-1.943-1.334-3.164 0-1.276.445-2.33 1.334-3.163.89-.888 1.945-1.277 3.28-1.277 1.333 0 2.445.444 3.278 1.277.945.888 1.334 1.942 1.334 3.163zm-6.725 0c0 .722.223 1.277.612 1.721.389.444.944.666 1.556.666.611 0 1.167-.222 1.556-.666.389-.444.611-1 .611-1.72 0-.722-.222-1.277-.611-1.721-.389-.444-.945-.666-1.556-.666-.612 0-1.167.222-1.556.666-.445.444-.612 1.054-.612 1.72zM168.903 62.607v.555h2.112v1.72h-2.112v6.883h-2.445v-6.827h-1v-1.72h1v-.556c0-.943.278-1.72.889-2.275.556-.555 1.278-.833 2.167-.833.834 0 1.612.333 2.335.944l-.89 1.61c-.333-.39-.778-.611-1.167-.611a.893.893 0 0 0-.611.277c-.222.222-.278.5-.278.833M48.631 77.592c.778.666 1.167 1.72 1.167 3.108 0 1.388-.389 2.443-1.222 3.053-.834.666-2.057.944-3.724.944h-1.5v3.163H40.85V76.593h4.002c1.723 0 2.946.333 3.78 1zm-1.89 4.44c.278-.332.445-.832.445-1.498s-.222-1.11-.611-1.388c-.39-.277-1-.388-1.834-.388h-1.39v3.774h1.723c.834 0 1.39-.166 1.668-.5zM58.69 87.86h-2.278v-1.054c-.611.777-1.39 1.165-2.334 1.165-.945 0-1.723-.277-2.334-.777-.612-.555-.945-1.22-.945-2.109 0-.888.333-1.554.945-1.998.667-.444 1.556-.666 2.667-.666h1.834v-.055c0-.944-.5-1.388-1.445-1.388-.444 0-.889.111-1.333.278-.445.166-.89.388-1.168.61l-1.111-1.554c1.167-.833 2.445-1.221 3.89-1.221 1.056 0 1.946.277 2.612.777.667.555 1 1.388 1 2.498v5.494zm-2.445-3.33v-.444h-1.5c-.945 0-1.445.278-1.445.888 0 .333.111.555.333.722.223.166.556.277 1 .277.445 0 .834-.11 1.168-.388.278-.222.444-.61.444-1.055zM68.362 86.584c-1 .943-2.112 1.387-3.446 1.387s-2.39-.388-3.28-1.22c-.889-.833-1.278-1.888-1.278-3.275 0-1.388.445-2.443 1.334-3.275.89-.833 1.89-1.221 3.113-1.221 1.222 0 2.223.388 3.056 1.11.834.721 1.279 1.72 1.279 2.997v1.277h-6.336c.055.5.333.888.722 1.165.445.278.89.444 1.445.444.834 0 1.556-.277 2.112-.832l1.279 1.443zm-2.335-5.162a1.833 1.833 0 0 0-1.222-.444c-.5 0-.945.166-1.334.444-.39.278-.612.666-.723 1.166h3.835c0-.444-.222-.888-.556-1.166zM74.253 87.971c-1.056 0-1.945-.444-2.779-1.332-.834-.888-1.223-1.942-1.223-3.274 0-1.277.39-2.332 1.167-3.164.778-.833 1.723-1.221 2.78-1.221 1.055 0 1.945.388 2.612 1.11v-4.274h2.445v11.989H76.81v-1.166c-.667.944-1.557 1.332-2.557 1.332zm-1.556-4.44c0 .722.222 1.277.611 1.72.445.445.89.667 1.5.667.556 0 1.057-.222 1.446-.666.389-.444.611-1 .611-1.72 0-.722-.222-1.277-.611-1.777-.39-.444-.89-.722-1.445-.722-.556 0-1.056.223-1.445.722-.445.5-.667 1.055-.667 1.776zM81.645 78.036c-.278-.277-.39-.61-.39-.999 0-.388.112-.721.39-.999.278-.277.611-.388 1-.388.39 0 .723.11 1 .388.279.278.39.61.39 1 0 .388-.111.72-.39.998-.277.278-.61.389-1 .389-.389.055-.722-.111-1-.389zm2.223 9.824h-2.445v-8.714h2.445v8.714zM93.483 87.86h-2.279v-1.054c-.611.777-1.39 1.165-2.334 1.165-.945 0-1.723-.277-2.334-.777-.612-.555-.945-1.22-.945-2.109 0-.888.333-1.554.945-1.998.667-.444 1.556-.666 2.668-.666h1.834v-.055c0-.944-.5-1.388-1.445-1.388-.445 0-.89.111-1.334.278-.445.166-.89.388-1.167.61l-1.112-1.554c1.167-.833 2.445-1.221 3.89-1.221 1.056 0 1.946.277 2.613.777.667.555 1 1.388 1 2.498v5.494zm-2.445-3.33v-.444h-1.501c-.945 0-1.445.278-1.445.888 0 .333.111.555.333.722.223.166.556.277 1 .277.445 0 .835-.11 1.168-.388.278-.222.445-.61.445-1.055zM98.43 80.922v3.886c0 .333.11.61.277.777a.893.893 0 0 0 .612.277c.444 0 .833-.222 1.167-.61l.89 1.72c-.779.666-1.557 1.055-2.39 1.055-.834 0-1.557-.278-2.113-.833-.555-.555-.889-1.276-.889-2.22v-3.996h-1v-1.72h1v-2.665h2.446v2.609h2.112v1.72M107.155 81.311c-.722 0-1.278.278-1.611.777-.334.5-.556 1.166-.556 2.054v3.774h-2.446v-8.714h2.446v1.165c.333-.333.722-.666 1.167-.888.445-.222.945-.388 1.445-.388v2.276M109.323 78.036c-.278-.277-.39-.61-.39-.999 0-.388.112-.721.39-.999.278-.277.611-.388 1-.388.39 0 .723.11 1 .388.279.278.39.61.39 1 0 .388-.111.72-.39.998-.277.278-.61.389-1 .389-.389.055-.722-.111-1-.389zm2.223 9.824h-2.445v-8.714h2.445v8.714zM117.938 85.862c.833 0 1.556-.388 2.167-1.22l1.445 1.609c-1.111 1.165-2.334 1.72-3.668 1.72-1.278 0-2.39-.388-3.335-1.22-.889-.833-1.334-1.888-1.334-3.22 0-1.332.445-2.387 1.39-3.275.89-.832 2-1.276 3.223-1.276.612 0 1.279.11 1.89.388a4.516 4.516 0 0 1 1.667 1.166l-1.278 1.665c-.278-.333-.611-.61-1-.777-.39-.166-.834-.278-1.223-.278-.611 0-1.167.223-1.667.611-.445.389-.667 1-.667 1.72 0 .722.222 1.333.667 1.721.611.444 1.111.666 1.723.666M129.665 85.14c0 .833-.334 1.555-.945 2.054-.612.5-1.445.777-2.39.777a6.302 6.302 0 0 1-2-.333 5.604 5.604 0 0 1-1.89-.999l1.055-1.498c.89.721 1.89 1.054 2.89 1.054.334 0 .556-.055.723-.166a.583.583 0 0 0 .278-.5c0-.222-.111-.388-.39-.555a5.365 5.365 0 0 0-1.11-.5c-.5-.166-.834-.277-1.112-.388-.278-.11-.556-.277-.89-.444-.666-.388-1-.999-1-1.831 0-.778.334-1.444.945-1.943.667-.5 1.5-.777 2.501-.777 1 0 2.056.333 3.057 1.054l-.89 1.61c-.778-.5-1.5-.777-2.278-.777-.723 0-1.112.222-1.112.61 0 .223.111.389.334.556.222.11.611.277 1.167.444.556.166.945.277 1.167.388.222.111.5.222.834.444.778.278 1.056.888 1.056 1.72M143.06 87.86h-2.28v-1.054c-.611.777-1.39 1.165-2.334 1.165-.945 0-1.723-.277-2.334-.777-.612-.555-.945-1.22-.945-2.109 0-.888.333-1.554.945-1.998.667-.444 1.556-.666 2.668-.666h1.834v-.055c0-.944-.5-1.388-1.445-1.388-.445 0-.89.111-1.334.278-.445.166-.89.388-1.167.61l-1.112-1.554c1.167-.833 2.445-1.221 3.89-1.221 1.056 0 1.946.277 2.613.777.667.555 1 1.388 1 2.498v5.494zm-2.446-3.33v-.444h-1.501c-.945 0-1.445.278-1.445.888 0 .333.111.555.333.722.223.166.556.277 1 .277.445 0 .835-.11 1.168-.388.278-.222.445-.61.445-1.055zM147.617 83.032v4.828h-2.446v-8.714h2.446v.944c.722-.722 1.556-1.11 2.5-1.11.89 0 1.668.333 2.28.943.61.666.944 1.499.944 2.61v5.272h-2.445v-4.94c0-1.332-.5-1.998-1.501-1.998-.5 0-.89.166-1.278.5-.334.444-.5.943-.5 1.665M158.899 87.971c-1.056 0-1.945-.444-2.779-1.332-.834-.888-1.223-1.942-1.223-3.274 0-1.277.39-2.332 1.167-3.164.779-.833 1.723-1.221 2.78-1.221 1.055 0 1.945.388 2.612 1.11v-4.274h2.445v11.989h-2.445v-1.166c-.667.944-1.501 1.332-2.557 1.332zm-1.5-4.44c0 .722.222 1.277.61 1.72.445.445.89.667 1.501.667.556 0 1.056-.222 1.445-.666.39-.444.612-1 .612-1.72 0-.722-.223-1.277-.612-1.777-.389-.444-.889-.722-1.445-.722-.555 0-1.056.223-1.445.722-.5.5-.667 1.055-.667 1.776zM175.74 85.64c1.222 0 2.278-.5 3.056-1.443l1.612 1.665c-1.278 1.443-2.78 2.165-4.558 2.165-1.723 0-3.168-.555-4.28-1.665-1.11-1.11-1.666-2.498-1.666-4.163s.555-3.053 1.722-4.218c1.168-1.11 2.557-1.665 4.224-1.665 1.835 0 3.39.721 4.669 2.109l-1.556 1.776c-.778-1-1.779-1.499-3.001-1.499-.945 0-1.779.333-2.446.944-.667.61-1 1.443-1 2.498 0 1.054.333 1.887.945 2.553a3.15 3.15 0 0 0 2.278.943M184.52 83.198v4.662h-2.445V75.872h2.446v4.273c.722-.721 1.556-1.11 2.445-1.11.89 0 1.667.333 2.279.944.611.666.945 1.499.945 2.609v5.272h-2.446v-4.773c0-1.332-.5-1.998-1.5-1.998-.5 0-.89.167-1.279.5-.278.388-.444.888-.444 1.61M192.524 78.036c-.278-.277-.39-.61-.39-.999 0-.388.112-.721.39-.999.278-.277.611-.388 1-.388.39 0 .723.11 1 .388.279.278.39.61.39 1 0 .388-.111.72-.39.998-.277.278-.61.389-1 .389-.389.055-.722-.111-1-.389zm2.223 9.824h-2.445v-8.714h2.445v8.714zM196.97 75.872h2.445v11.989h-2.445zM205.085 87.971c-1.056 0-1.946-.444-2.78-1.332-.833-.888-1.222-1.942-1.222-3.274 0-1.277.39-2.332 1.167-3.164.778-.833 1.723-1.221 2.78-1.221 1.055 0 1.944.388 2.611 1.11v-4.274h2.446v11.989h-2.446v-1.166c-.667.944-1.5 1.332-2.556 1.332zm-1.5-4.44c0 .722.221 1.277.61 1.72.445.445.89.667 1.501.667.556 0 1.056-.222 1.445-.666.39-.444.611-1 .611-1.72 0-.722-.222-1.277-.61-1.777-.39-.444-.89-.722-1.446-.722-.556 0-1.056.223-1.445.722-.445.5-.667 1.055-.667 1.776zM223.76 76.593h2.556V87.86h-2.557v-4.44h-4.502v4.44h-2.5V76.593h2.5v4.718h4.502M236.32 86.584c-1 .943-2.112 1.387-3.446 1.387s-2.39-.388-3.28-1.22c-.888-.833-1.277-1.888-1.277-3.275 0-1.388.444-2.443 1.333-3.275.89-.833 1.89-1.221 3.113-1.221s2.223.388 3.057 1.11c.833.721 1.278 1.72 1.278 2.997v1.277h-6.447c.055.5.333.888.722 1.165.39.278.89.444 1.445.444.834 0 1.557-.277 2.112-.832l1.39 1.443zm-2.334-5.162a1.833 1.833 0 0 0-1.223-.444c-.5 0-.945.166-1.334.444-.39.278-.611.666-.723 1.166h3.835c-.055-.444-.222-.888-.555-1.166zM246.046 87.86h-2.279v-1.054c-.611.777-1.39 1.165-2.334 1.165-.945 0-1.723-.277-2.334-.777-.612-.555-.945-1.22-.945-2.109 0-.888.333-1.554.945-1.998.667-.444 1.556-.666 2.668-.666h1.834v-.055c0-.944-.5-1.388-1.445-1.388-.445 0-.89.111-1.334.278-.445.166-.89.388-1.167.61l-1.056-1.554c1.167-.833 2.445-1.221 3.89-1.221 1.056 0 1.945.277 2.612.777.667.555 1 1.388 1 2.498l-.055 5.494zm-2.445-3.33v-.444H242.1c-.945 0-1.445.278-1.445.888 0 .333.111.555.333.722.223.166.556.277 1 .277.445 0 .835-.11 1.168-.388.278-.222.445-.61.445-1.055zM248.214 75.872h2.445v11.989h-2.445zM255.717 80.922v3.886c0 .333.11.61.278.777a.893.893 0 0 0 .611.277c.445 0 .834-.222 1.167-.61l.89 1.72c-.779.666-1.557 1.055-2.39 1.055-.834 0-1.557-.278-2.112-.833-.556-.555-.89-1.276-.89-2.22v-3.996h-1v-1.72h1v-2.665h2.446v2.609h2.112v1.72M262.33 83.198v4.662h-2.445V75.872h2.446v4.273c.722-.721 1.556-1.11 2.445-1.11.89 0 1.667.333 2.279.944.611.666.945 1.499.945 2.609v5.272h-2.446v-4.773c0-1.332-.5-1.998-1.5-1.998-.5 0-.89.167-1.279.5-.278.388-.444.888-.444 1.61" fill="#0D0D58"/><path d="M43.129 107.175v.056s-.056.055-.056.11c0 .112-.055.167-.055.167-.111.056-.111.278-.111.555-.112.333-.223.722-.334 1.221-.111.5-.111.888-.111 1.11.056.389.222.722.556.833.333.166.556.222.667.222.278.055.833 0 1.667-.278.111-.055.278-.055.5-.11.167 0 .5-.112.89-.223.389-.11.61-.166.666-.11.223.221.334.443.278.665-.055.111-.278.333-.778.666-.444.333-.833.555-1.111.666-.334.167-.89.222-1.557.278-.722 0-1.167-.056-1.445-.111-.833-.222-1.5-.944-1.89-2.165v-1.054c0-.5.056-.722.112-.777.056-.056.056-.111.056-.222s.055-.278.11-.555c.112-.278.112-.5.056-.666.056-.111.111-.222.167-.278.111-.11.111-.222.111-.333 0-.11 0-.277.167-.444l.167-.277c0-.111.11-.333.278-.833.166-.444.277-.721.333-.832v-.056c.056-.111.111-.222.222-.389.056-.499.445-1.276 1.167-2.386.723-1.11 1.168-1.832 1.501-2.11.5-.554.89-.72 1.223-.388.111.167.222.333.278.61.055.278 0 .39-.111.445-.167.11-.779 1.11-1.835 2.997l-.722 1.499c-.278.61-.556 1.276-.834 1.998-.166.277-.222.388-.222.5M52.41 104.567c.723 0 1.223.166 1.557.499.333.333.5.666.5 1v.166c0 .277-.167.666-.5 1.276-.167.278-.445.555-.778.833-.334.222-.723.388-1.056.388-.334 0-.667 0-1-.055-.334-.056-.501-.056-.612-.056a.422.422 0 0 0-.222.111c-.112.111-.112.389-.112.777.056.333.112.555.278.722.167.11.334.222.556.222a2 2 0 0 0 .611-.111c.223-.111.445-.222.667-.444.278-.222.445-.333.612-.333.166 0 .278.055.444.222.167.166.223.277.223.444-.056.277-.334.666-.834 1.11-.556.444-1.112.666-1.779.666a2.462 2.462 0 0 1-1.667-.61c-.444-.39-.667-.944-.667-1.666 0-.277 0-.555.056-.888.055-.333.11-.721.333-1.165.167-.444.5-.944.89-1.499a3.353 3.353 0 0 1 1.278-1.11c.5-.388.89-.5 1.223-.5zm-.11 1.332c-.167 0-.39.11-.668.388-.277.278-.555.555-.778.888 0 .167.223.222.612.222s.611-.055.722-.055c.111-.056.278-.222.556-.444s.39-.444.39-.5c0-.277-.223-.444-.612-.444h-.223v-.055zM54.69 110.95c0-.112-.056-.278-.223-.445-.167-.166.222-1.11 1.112-2.83.055-.056.166-.222.277-.389.112-.166.167-.277.223-.333 0-.055 0-.11.055-.11.056-.056.056-.056.111-.056l.167-.278c.056-.11.278-.388.723-.777.444-.388.778-.721 1-.888.278-.166.5-.222.778-.222s.5.111.723.278c0 .055.11.11.222.222.222.166.778.61 1.556 1.332l-.333.888c-.278.832-.223 1.554.222 2.22.111.277.334.388.611.444.278.055.445.166.445.388 0 .5-.167.777-.5.833-.945.11-1.667-.278-2.168-1.166a1.878 1.878 0 0 1-.333-.832c-.111.11-.222.277-.445.5-1.667 1.664-2.945 2.275-3.78 1.72a2.115 2.115 0 0 0-.333-.278c0-.166-.11-.222-.11-.222zm4.279-4.83c-.445 0-1.223.889-2.223 2.61-.167.277-.334.665-.5 1.165.222 0 .555-.167 1.111-.666.111-.111.278-.222.445-.389.166-.166.333-.277.389-.333.11-.055.222-.166.333-.277.222-.222.445-.5.612-.777l.389-.666c-.112-.389-.334-.666-.556-.666zM68.528 112.004c-.11.055-.222.11-.278.11-.055 0-.166.056-.333.056s-.278 0-.445-.11c-.166-.112-.278-.223-.333-.39-.111-.277-.167-.887-.222-1.775l-.779.666c-.778.721-1.5 1.054-2.167 1.054-.222-.055-.445-.222-.723-.5-.278-.277-.5-.554-.555-.776-.167-.333-.112-.944.166-1.776.278-.833.612-1.443 1.056-1.943.39-.61.89-.943 1.5-1.165.612-.167 1.168-.111 1.613.166.389.222.611.167.667-.111 0-.055.166-.555.5-1.554a29.08 29.08 0 0 1 1.334-3.275c.222-.5.5-.777.778-.721.167 0 .333.055.5.166.167.111.333.278.39.444a.927.927 0 0 1-.057.666c-.333.555-.722 1.443-1.167 2.664a63.716 63.716 0 0 0-1 2.942c-.222.722-.334 1.554-.334 2.609-.055 1.054 0 1.61.056 1.776 0 .222.056.333 0 .444 0 .166-.056.277-.167.333zm-4.113-1.998c.112.055.278 0 .556-.056.278-.11.556-.277.89-.555.333-.277.61-.5.778-.721.166-.222.278-.5.389-.777.11-.333 0-.61-.278-.833-.334-.277-.778-.166-1.223.278-.611.555-1.056 1.387-1.278 2.442 0 .11.055.166.166.222zM70.085 110.061l.055-.388c0-.056.056-.278.167-.61.278-.611.611-1.61 1-2.998 0-.166.111-.222.278-.222.111-.055.278 0 .5.167.223.166.39.333.5.555.167.166.167.444-.055.888-.167.444-.334.832-.39 1.22-.166.334-.221.556-.277.722a4.34 4.34 0 0 0-.167.777c-.055.333-.11.555-.222.666-.111.5-.278.777-.556.888-.278.111-.5.056-.722-.222-.111-.11-.223-.388-.223-.721 0-.333.056-.555.112-.722zm1.834-6.272c-.056-.166-.112-.277-.112-.388a.5.5 0 0 1 .056-.278c.056-.055.167-.277.278-.555.278-.5.445-.777.556-.777.166-.11.333-.11.611 0 .278.111.445.278.556.444.222.5.111 1-.278 1.499a1.087 1.087 0 0 1-.723.444c-.277.055-.5.055-.667-.056-.055 0-.166-.166-.277-.333zM78.866 110.061l.111-1.22v-.278c-.056-.222-.111-.389-.222-.389-.223 0-.612.222-1.223.666-1.056.777-1.89 1.499-2.445 2.22-.112.111-.223.167-.278.222h-.278c-.111 0-.278-.11-.5-.388-.223-.222-.39-.444-.445-.61 0-.5.222-1.222.722-2.165.056-.222.223-.61.5-1.277.279-.666.445-1.165.445-1.498 0-.111.056-.167.167-.167 0-.055.167-.055.39-.055.221 0 .444.11.666.277.222.167.334.389.334.722 0 .333-.167.777-.5 1.387-.334.61-.5.944-.5 1 .221-.112.555-.39 1.11-.833 1.279-1 2.057-1.499 2.335-1.499.167 0 .389.111.667.278.278.166.445.333.5.5l-.055.832.055.999c0 .388 0 .666-.055.832l.055.111c-.055.056 0 .222.167.555.167.333.222.5.222.61 0 .056-.111.223-.278.39-.166.166-.333.277-.5.277-.778-.222-1.167-.61-1.167-1.499M84.702 104.789c.444-.222.833-.278 1.222-.167.278.056.612.222 1 .555.612.61.946 1 1.001 1.221.167.389.111.777-.222 1.166a1.653 1.653 0 0 0-.39.61c-.11.222-.166.444-.221.666-.056.222-.167.61-.334 1.221-.222.61-.445 1.388-.667 2.331-.278.944-.556 1.665-.945 2.165-.333.5-.667.832-1 .999-.334.111-.667.111-1.056-.056a1.961 1.961 0 0 1-.945-.832c-.111-.167-.278-.555-.5-1.055-.222-.5-.278-.777-.222-.832.055-.167.277-.278.61-.222.334 0 .501.11.557.222.11.333.222.555.389.721.11.222.278.333.444.444.167.056.278.111.39.056a1.41 1.41 0 0 0 .444-.555c.111-.222.222-.61.445-1.166.444-1.498.722-2.33.833-2.553-.055.056-.222.167-.389.278a4.274 4.274 0 0 1-.833.555c-.056.11-.278.166-.556.166-.612 0-1.056-.166-1.334-.555a3.008 3.008 0 0 1-.334-.61c-.222-.5-.11-1.277.278-2.276.223-.5.612-.999 1.112-1.498.445-.555.89-.888 1.223-1zm1.278 1.665c0-.333-.222-.5-.556-.444-.333.055-.778.388-1.278.999a3.316 3.316 0 0 0-.445.888c-.278.721-.222 1.165.056 1.276.389 0 .722-.055.89-.222.221-.11.5-.388.777-.888.445-.5.612-1.054.556-1.61zM93.372 105.122c-.056-.056-.056-.167-.056-.222 0-.056.056-.222.167-.389.111-.167.222-.278.278-.278h.556c.278 0 .5-.055.556-.055a.434.434 0 0 0 .222-.222 5.76 5.76 0 0 1 .389-.666c.445-.833.722-1.332.89-1.443.166-.111.388-.222.61-.222.223 0 .445.055.667.166.167.278.167.5 0 .777-.055.167-.166.333-.333.555-.167.222-.278.389-.333.555-.223.278-.223.444-.112.5.112.055.5 0 1.056-.111s.89.111.945.61c.056.278 0 .445-.111.556-.111.055-.389.11-.834.11-.389.056-.778.112-1.111.112-.334 0-.556 0-.612.055a.5.5 0 0 0-.333.333c-.056 0-.056.111-.111.222-.056.167-.223.444-.445.888a16.872 16.872 0 0 0-.722 2.886c-.056.222 0 .444.055.5.056.11.278.166.612.222.61.055 1.222-.111 1.945-.555l.5-.278c.111-.166.222-.055.39.222a.42.42 0 0 1 .11.222c0 .5-.278.833-.778 1.166-.5.333-1 .5-1.556.61-.556.111-.945.111-1.223.056a1.35 1.35 0 0 1-.778-.5c-.222-.277-.389-.5-.445-.721l-.11-.167c-.056-.055-.112-.388-.056-.943 0-.555.055-.944.11-1.221.056-.278.279-.888.612-1.832l.5-1.054-.722-.222c-.278-.111-.334-.111-.39-.222M104.043 109.673l.111-1.388c0-.277-.055-.388-.222-.388-.222 0-.667.222-1.278.666a10.42 10.42 0 0 0-1.835 1.72c-.389.555-.778.833-1.111.833a1.057 1.057 0 0 1-.612-.389c-.166-.222-.277-.444-.277-.721 0-.278.166-1 .555-2.22.056-.278.112-.61.278-.944.167-.333.278-.721.39-.999.11-.333.333-.999.666-1.943.334-.999.612-1.665.778-2.053.167-.389.278-.722.334-.888.111-.278.222-.5.278-.722 0-.11.055-.166.222-.277.167-.111.278-.111.445-.111.166 0 .333.11.5.388.333.444.389.888.167 1.332-.223.444-.556 1.332-1 2.72-.501 1.388-.779 2.22-.946 2.553l-.333.278-.278 1.11v.055a14.46 14.46 0 0 1 1.5-1.332c.445-.333.668-.5.723-.555.056-.055.222-.166.5-.388s.667-.333 1.112-.333c.222 0 .445.166.722.444.278.277.39.666.39 1.054v.278c0 .277-.112.943-.39 2.053.056 0 .167 0 .278-.055.223 0 .445.055.556.166a.96.96 0 0 0 .222.167s.056.055.056.11c0 .278-.167.5-.445.722-.333.222-.611.333-.889.333-.333 0-.611-.11-.834-.388-.222-.222-.333-.5-.333-.888M111.268 104.567c.723 0 1.223.166 1.556.499.334.333.5.666.5 1v.166c0 .277-.166.666-.5 1.276-.166.278-.444.555-.778.833-.333.222-.722.388-1.056.388-.333 0-.667 0-1-.055-.334-.056-.5-.056-.611-.056a.422.422 0 0 0-.223.111c-.111.111-.111.389-.111.777.056.333.111.555.278.722.167.11.333.222.556.222a2 2 0 0 0 .611-.111c.222-.111.445-.222.667-.444.278-.222.445-.333.611-.333.167 0 .278.055.445.222.167.166.222.277.222.444-.055.277-.333.666-.833 1.11-.556.444-1.112.666-1.779.666a2.462 2.462 0 0 1-1.667-.61c-.445-.39-.667-.944-.667-1.666 0-.277 0-.555.055-.888.056-.333.112-.721.334-1.165.167-.444.5-.944.89-1.499a3.353 3.353 0 0 1 1.277-1.11c.5-.388.89-.5 1.223-.5zm-.111 1.332c-.167 0-.389.11-.667.388s-.556.555-.778.888c0 .167.222.222.611.222.39 0 .612-.055.723-.055.111-.056.278-.222.556-.444.222-.222.389-.444.389-.5 0-.277-.223-.444-.612-.444h-.222v-.055zM122.94 109.007c0 .277.055.444.166.5h.223c.11 0 .222-.056.333-.167.111-.111.334-.278.556-.5.222-.222.556-.666.89-1.22.333-.556.555-.889.555-1 0-.11.056-.222.167-.333.333-.5.722-.61 1.056-.222.11.111.166.389.166.888-.277.944-.444 1.499-.61 1.665a2.367 2.367 0 0 0-.612.666c-.334.389-.612.666-.723.777-.167.111-.222.222-.278.222-.389.389-.833.666-1.334.777-.5.167-.889.111-1.167-.055-.389-.222-.555-.5-.555-1l-.112-.388c-.166 0-.333.111-.5.389-.167.222-.444.5-.89.832-.444.333-.777.444-1.055.444-.278 0-.556-.277-.778-.888-.278-.555-.334-1.165-.278-1.72 0-.389.055-.777.111-1.166.056-.388.111-.61.111-.666.111-.721.278-1.276.445-1.61.222-.277.444-.388.778-.388.278.056.445.167.5.444.111.111.111.333.111.777 0 .389-.11.666-.222.833 0 .055-.056.388-.111.943-.056.555-.111.888-.111 1.055-.056.333 0 .5.166.444.223-.111.445-.389.779-.833.333-.5.555-.832.722-1.11.111-.222.278-.61.445-1.054.166-.444.278-.722.444-.888.111-.167.278-.222.5-.222a.94.94 0 0 1 .556.166c.334.333.39.833.111 1.388-.389.777-.555 1.554-.555 2.22M127.33 110.95c0-.112-.055-.278-.222-.445-.167-.166.222-1.11 1.112-2.83.055-.056.166-.222.278-.389.11-.166.166-.277.222-.333 0-.055 0-.11.055-.11.056-.056.056-.056.112-.056l.166-.278c.056-.11.278-.388.723-.777.444-.388.778-.721 1-.888.278-.166.5-.222.778-.222s.5.111.723.278c0 .055.111.11.222.222.222.166.778.61 1.556 1.332l-.333.888c-.278.832-.222 1.554.222 2.22.111.277.334.388.612.444.277.055.444.166.444.388 0 .5-.167.777-.5.833-.945.11-1.667-.278-2.168-1.166a1.878 1.878 0 0 1-.333-.832c-.111.11-.222.277-.445.5-1.667 1.664-2.945 2.275-3.779 1.72a2.115 2.115 0 0 0-.333-.278c-.056-.166-.112-.222-.112-.222zm4.28-4.83c-.445 0-1.223.889-2.223 2.61-.167.277-.334.665-.5 1.165.222 0 .555-.167 1.111-.666.111-.111.278-.222.445-.389.167-.166.333-.277.389-.333.111-.055.222-.166.333-.277.223-.222.445-.5.612-.777l.389-.666c-.111-.389-.334-.666-.556-.666z" fill="#11A7F2"/><path d="M132.277 114.224a.68.68 0 0 1 .5-.222c.167 0 .334 0 .39.055.444.333.888.444 1.333.333.389-.055.834-.444 1.278-1.054.5-.833.89-1.443 1.167-1.943-.277-.166-.5-.388-.722-.721-.222-.333-.334-.61-.278-.722v-.222c-.111 0-.222-.388-.278-1.11-.055-.777-.055-1.276 0-1.61.056-.332.056-.887.111-1.664 0-.333.111-.555.334-.722.444-.166.778-.111 1 .278.223.388.278 1.054.223 1.942-.112 1.665 0 2.664.333 3.053.111-.278.222-.5.278-.555.167-.333.278-.555.278-.61a.42.42 0 0 1 .11-.223c.056-.11.168-.333.39-.721.333-.888.5-1.443.611-1.554l.167-.333c.056-.111.056-.167.111-.222 0-.056.056-.111.111-.167.056-.055.056-.111.112-.166 0-.056.055-.056.11-.111.056-.056.112-.111.167-.111.223-.167.39-.167.667 0 .167.166.334.333.39.444.166.277.11.721-.223 1.332-.222.666-.389 1.054-.611 1.276-.39.944-.778 1.72-1.112 2.387a28.066 28.066 0 0 0-.722 1.554c-.778 1.22-1.334 2.053-1.668 2.442-.778.721-1.39 1.11-1.834 1.221-.611.111-1.223.111-1.778-.056-.556-.166-.89-.444-1-.721-.167-.444-.112-.61.055-.777M145.616 110.061l.055-.388c0-.056.056-.278.167-.61.278-.611.611-1.61 1-2.998 0-.166.112-.222.278-.222.111-.055.278 0 .5.167.223.166.39.333.5.555.167.166.167.444-.055.888-.167.444-.333.832-.389 1.22-.167.334-.222.556-.278.722a4.34 4.34 0 0 0-.167.777c-.055.333-.11.555-.222.666-.111.5-.278.777-.556.888-.278.111-.5.056-.722-.222-.111-.11-.222-.388-.222-.721 0-.333 0-.555.11-.722zm1.834-6.272c-.056-.166-.111-.277-.111-.388 0-.111.055-.167.055-.278.056-.055.167-.277.278-.555.278-.5.445-.777.556-.777.167-.11.333-.11.611 0 .278.111.445.278.556.444.222.5.111 1-.278 1.499-.167.222-.389.388-.722.444-.278.055-.5.055-.667-.056-.111 0-.223-.166-.278-.333zM154.342 110.061l.11-1.22v-.278c-.055-.222-.11-.389-.222-.389-.222 0-.611.222-1.222.666-1.056.777-1.89 1.499-2.446 2.22-.111.111-.222.167-.278.222h-.278c-.11 0-.277-.11-.5-.388-.222-.222-.389-.444-.444-.61 0-.5.222-1.222.722-2.165.056-.222.222-.61.5-1.277.278-.666.445-1.165.445-1.498 0-.111.056-.167.167-.167 0-.055.166-.055.389-.055.222 0 .444.11.667.277.222.167.333.389.333.722 0 .333-.167.777-.5 1.387-.334.61-.5.944-.5 1 .222-.112.555-.39 1.111-.833 1.279-1 2.057-1.499 2.335-1.499.166 0 .389.111.667.278.277.166.444.333.5.5l-.056.832.056.999c0 .388 0 .666-.056.832l.056.111c-.056.056 0 .222.166.555.167.333.223.5.223.61 0 .056-.111.223-.278.39-.167.166-.334.277-.5.277-.778-.222-1.167-.61-1.167-1.499M164.901 111.338h.223c.055 0 .166 0 .278-.056.11-.055.222-.055.278-.11.055 0 .166-.056.333-.112.111-.055.222-.11.333-.11.056-.056.167-.112.334-.167.834-.333 1.445-.666 1.723-.944.333-.222.556-.333.778-.333.167-.055.278 0 .389.167.111.166.111.333.111.555 0 .222-.111.444-.333.666-.223.222-.5.444-.834.61-.111.111-.445.278-.89.5-.444.333-1 .61-1.611.832-.611.222-1.112.278-1.556.222-.945-.333-1.556-.832-1.834-1.498-.223-.61-.334-1.388-.334-2.331 0-1.11.167-2.11.556-3.108 0 0 .111-.222.278-.611.167-.388.278-.61.333-.777.223-.5.556-1.11 1.112-1.832.667-1.054 1.223-1.72 1.612-2.109.389-.388 1-.888 1.778-1.443.278-.222.612-.333 1.056-.388.39-.056.834 0 1.223.222.389.222.723.555.89.999.277.5.277 1.22-.056 2.164-.278.944-.723 1.665-1.223 2.165-.39.222-.778.111-1.278-.333-.167-.278-.223-.389-.167-.444h.055c.112-.111.278-.389.5-.777.223-.389.334-.666.39-.833.055-.166.11-.333.11-.444.056-.11.056-.222.056-.333 0-.055 0-.166.056-.222v-.277c0-.056-.056-.111-.111-.222-.111-.111-.278-.056-.667.166-.611.278-1.334.944-2.168 2.054-1.056 1.387-1.723 2.498-2 3.275l-.223.5c.056.221-.055.499-.222.832a7.226 7.226 0 0 0-.222 2.386c.055.888.278 1.388.667 1.554.11-.055.222-.055.277-.055M175.906 109.673l.111-1.388c0-.277-.055-.388-.222-.388-.222 0-.667.222-1.278.666a10.42 10.42 0 0 0-1.835 1.72c-.389.555-.778.833-1.111.833a1.057 1.057 0 0 1-.611-.389c-.167-.222-.278-.444-.278-.721 0-.278.166-1 .555-2.22.056-.278.112-.61.278-.944.167-.333.278-.721.39-.999.11-.277.333-.999.666-1.943.334-.999.612-1.665.778-2.053.167-.389.223-.722.334-.888.111-.278.222-.5.278-.722 0-.11.055-.166.222-.277.167-.111.278-.111.445-.111.166 0 .333.11.5.388.333.444.389.888.167 1.332-.223.444-.556 1.332-1 2.72-.501 1.388-.779 2.22-.946 2.553l-.222.389-.278 1.11v.055a14.46 14.46 0 0 1 1.5-1.332c.445-.333.668-.5.723-.555.056-.055.223-.166.5-.388.278-.222.667-.333 1.112-.333.222 0 .445.166.723.444.278.277.389.666.389 1.054v.278c0 .277-.111.943-.39 2.053.056 0 .167 0 .279-.055.222 0 .444.055.555.166.111.111.223.167.223.167s.055.055.055.11c0 .278-.167.5-.444.722a1.48 1.48 0 0 1-.89.333c-.333 0-.611-.11-.833-.388-.334-.333-.445-.61-.445-1M179.352 110.061l.055-.388c0-.056.056-.278.167-.61.278-.611.612-1.61 1-2.998 0-.166.112-.222.278-.222.112-.055.278 0 .5.167.223.166.39.333.5.555.168.166.168.444-.055.888-.166.444-.333.832-.389 1.22-.166.334-.222.556-.278.722a4.34 4.34 0 0 0-.166.777c-.056.333-.112.555-.223.666-.11.5-.278.777-.555.888-.278.111-.5.056-.723-.222-.111-.11-.222-.388-.222-.721 0-.333.055-.555.11-.722zm1.834-6.272c-.056-.166-.111-.277-.111-.388 0-.111.055-.167.055-.278.056-.055.167-.277.278-.555.278-.5.445-.777.556-.777.167-.11.334-.11.611 0 .278.111.445.278.556.444.223.5.111 1-.278 1.499a1.087 1.087 0 0 1-.722.444c-.278.055-.5.055-.667-.056-.056 0-.167-.166-.278-.333zM184.132 105.677l.166-.722c.223-.388.556-1.221 1-2.553.501-1.332.723-2.054.723-2.165 0-.11.056-.222.111-.333.056-.11.167-.11.278-.11.056-.056.278-.112.556-.112l.278.278c.278.277.445.5.445.721 0 .222-.056.444-.112.61-.055.167-.333.722-.666 1.5-.056.11-.112.277-.223.443-.11.167-.167.333-.222.444-.056.111-.056.167-.056.167v.111c0 .055-.055.111-.11.222l-.168.333c-.5 1.055-.722 1.665-.722 1.776a.424.424 0 0 1-.111.278c-.056 0-.111.055-.111.166v.056c0 .11-.112.444-.278.943-.5 1.776-.778 2.886-.778 3.33 0 .444-.167.722-.445.888-.333.111-.667-.11-.89-.555-.222-.444-.277-1.054-.11-1.72.11-.333.222-.61.222-.777.055-.222.167-.666.389-1.277.222-.61.333-.943.389-1.11.111 0 .167-.11.167-.388.11-.111.166-.333.278-.444M191.746 112.004c-.111.055-.167.11-.278.11-.056 0-.167.056-.333.056-.167 0-.278 0-.445-.11-.167-.112-.278-.223-.334-.39-.11-.277-.166-.887-.222-1.775l-.778.666c-.778.721-1.5 1.054-2.168 1.054-.222-.055-.444-.222-.722-.5-.278-.277-.5-.554-.556-.776-.167-.333-.111-.944.167-1.776.278-.833.611-1.443 1.056-1.943.389-.61.89-.943 1.5-1.165.612-.167 1.168-.111 1.612.166.39.222.612.167.667-.111 0-.055.167-.555.5-1.554a29.08 29.08 0 0 1 1.334-3.275c.223-.5.5-.777.778-.721.167 0 .334.055.5.166.167.111.334.278.39.444a.927.927 0 0 1-.056.666c-.333.555-.722 1.443-1.167 2.664a63.716 63.716 0 0 0-1 2.942c-.223.722-.334 1.554-.334 2.609-.056 1.054 0 1.61.056 1.776 0 .222.055.333 0 .444 0 .166-.056.277-.167.333zm-4.113-1.998c.111.055.278 0 .556-.056.278-.11.556-.277.89-.555.333-.277.61-.5.777-.721.167-.222.278-.5.39-.777.11-.333 0-.61-.279-.833-.333-.277-.778-.166-1.222.278-.612.555-1.056 1.387-1.279 2.442.056.11.056.166.167.222zM195.748 104.511c.277 0 .444.056.555.167.278.222.056.999-.555 2.22-.223.388-.278.61-.223.61.111-.222.445-.555 1-.943.5-.389.834-.61 1.001-.722.111-.055.278-.11.445-.166.166-.056.222-.111.278-.111.277-.111.555-.167.889-.167.333.056.556.111.611.333 0 .111.056.222.222.278l.112.11c0 .112-.112.223-.278.39a.714.714 0 0 1-.556.221c-.167 0-.39.056-.667.167-.222.11-.5.222-.722.388-.223.111-.39.222-.5.278-.112.055-.279.166-.445.277-.334.222-.667.5-.945.833-.334.333-.5.555-.556.666-.111.11-.167.333-.278.666-.111.333-.111.61-.111.666-.056.222-.167.388-.278.555a1.041 1.041 0 0 1-.389.333c-.111.055-.278-.056-.5-.222-.39-.278-.556-.555-.5-.888.055-.333.166-.944.389-1.776.055-.333.222-1 .555-1.943.334-.943.612-1.61.89-1.942.055-.222.278-.278.556-.278M203.64 104.567c.722 0 1.222.166 1.556.499.333.333.5.666.5 1v.166c0 .277-.167.666-.5 1.276-.167.278-.445.555-.778.833-.334.222-.723.388-1.056.388-.334 0-.667 0-1-.055-.334-.056-.5-.056-.612-.056a.422.422 0 0 0-.222.111c-.111.111-.111.389-.111.777.055.333.11.555.277.722.167.11.334.222.556.222a2 2 0 0 0 .612-.111c.222-.111.444-.222.667-.444.277-.222.444-.333.61-.333.168 0 .279.055.446.222.166.166.222.277.222.444-.056.277-.334.666-.834 1.11-.556.444-1.111.666-1.778.666a2.462 2.462 0 0 1-1.668-.61c-.444-.39-.667-.944-.667-1.666 0-.277 0-.555.056-.888.055-.333.111-.721.333-1.165.167-.444.5-.944.89-1.499a3.353 3.353 0 0 1 1.278-1.11c.445-.222.89-.5 1.223-.5zm-.111 1.332c-.167 0-.39.11-.667.388-.278.278-.556.555-.779.888 0 .167.223.222.612.222s.611-.055.722-.055c.112-.056.278-.222.556-.444.222-.222.39-.444.39-.5 0-.277-.223-.444-.612-.444h-.222v-.055zM211.143 110.061l.11-1.22v-.278c-.055-.222-.11-.389-.221-.389-.223 0-.612.222-1.223.666-1.056.777-1.89 1.499-2.446 2.22-.11.111-.222.167-.277.222h-.278c-.112 0-.278-.11-.5-.388-.223-.222-.39-.444-.445-.61 0-.5.222-1.222.722-2.165.056-.222.223-.61.5-1.277.278-.666.445-1.165.445-1.498 0-.111.056-.167.167-.167 0-.055.167-.055.389-.055s.445.11.667.277c.222.167.333.389.333.722 0 .333-.166.777-.5 1.387-.333.61-.5.944-.5 1 .222-.112.556-.39 1.112-.833 1.278-1 2.056-1.499 2.334-1.499.167 0 .389.111.667.278.278.166.444.333.5.5l-.056.832.056.999c0 .388 0 .666-.056.832l.056.111c-.056.056 0 .222.167.555.166.333.222.5.222.61 0 .056-.111.223-.278.39-.167.166-.333.277-.5.277-.778-.222-1.167-.61-1.167-1.499M215.978 100.293c.111-.333.334-.666.667-.888.334-.222.778-.278 1.223-.056.222.111.389.333.5.555.111.222.167.444.111.61-.055.334-.111.667-.222.944-.111.278-.167.5-.222.555-.112.389-.5.944-1.112 1.665 0 .056-.056.111-.167.111-.111 0-.222.056-.278.056h-.278c-.11 0-.222 0-.277-.056-.223-.166-.223-.388 0-.777.555-.888.833-1.332.833-1.443 0-.11.056-.166.056-.222-.223.056-.445-.055-.667-.222-.167-.166-.222-.444-.167-.832M220.146 104.233c.167-.11.445-.11.723-.11.278 0 .5 0 .556.055.055 0 .111-.056.167-.056.166 0 .333.111.555.389.223.222.39.444.445.61 0 .889-.056 1.333-.222 1.333a.12.12 0 0 0-.112.11c0 .167-.166.334-.444.556-.278.222-.556.333-.834.333-.111-.056-.278-.111-.389-.222-.111-.111-.222-.278-.222-.389 0 0 .111-.166.389-.444.222-.277.389-.555.389-.777 0-.111-.111-.166-.334-.166a6.203 6.203 0 0 0-1.445.832c-.055.167-.166.222-.222.222 0 0-.111.056-.222.167-.111.11-.223.277-.39.5-.11.221-.222.388-.222.554l-.055.056v.277c0 .222.278.5.778.888.5.389.89.666 1.056.888.167.222.333.389.389.555.111.222.167.389.167.61 0 .39-.223.722-.667.944-.445.222-.945.333-1.556.333-.612 0-1.112-.11-1.557-.388-.444-.278-.667-.5-.667-.666 0-.167.056-.278.167-.333.111-.111.278-.111.5-.056.278.056.556.111.945.167.223 0 .5 0 .667-.056.222-.055.334-.11.334-.166 0-.056-.056-.111-.167-.222-.111-.111-.222-.111-.334-.111 0-.056-.222-.278-.722-.61-.5-.334-.723-.611-.723-.722v-.333c-.11 0-.166-.111-.222-.333-.056-.222-.111-.444-.111-.666 0-.61.389-1.332 1.167-2.054.89-.777 1.667-1.276 2.445-1.499M235.93 109.007l-.5 1.61c-.277 1.276-.444 2.108-.444 2.441-.334.056-.611 0-.778-.166-.167-.167-.334-.222-.334-.222-.444-.278-.555-.666-.278-1.221 0-.056.167-.666.5-1.887.056-.222.167-.5.334-.944.278-1.054.5-1.554.5-1.61v-.166c0-.055-.389-.11-1.222-.055-.778 0-1.557.055-2.223.11h-1.557c-.055.112-.222.667-.555 1.61-.278.944-.5 1.832-.723 2.664-.167.833-.389 1.61-.611 2.387-.445-.167-.778-.222-.89-.222-.166-.056-.333-.167-.389-.333-.11-.167-.11-.333-.055-.555.11-.111.166-.333.166-.722.056-.11.112-.388.223-.777.055-.388.278-1.22.667-2.497.333-1.277.556-1.943.667-2.054v-.222c0-.166.055-.388.222-.555.111-.388.167-.61.167-.777l1.056-2.609v-.11s.166-.334.444-1c.278-.61.5-1.165.723-1.61.222-.443.333-.72.333-.72.167-.223.334-.278.556-.167.278.11.556.388.778.777l.167.277-.667 1.332c-.5.833-.722 1.332-.722 1.443-.167.5-.334.944-.445 1.277-.111.333-.222.61-.278.833-.111.222-.167.388-.222.499-.056.111-.056.167-.056.222 0-.055.278-.055.89-.055 1.945 0 3.056-.056 3.278-.056l.945-.111c.667-2.054 1.056-3.386 1.279-3.996.222-.61.389-1 .611-1.277.222-.277.389-.388.611-.388.056 0 .167.055.39.222.222.166.333.277.333.333.278.277.222.61-.111 1.11a3.698 3.698 0 0 0-.5 1.165c-.167.444-.278.722-.278.833 0 .277-.056.444-.112.5-.11.11-.166.277-.333.554-.111.278-.167.5-.167.667a.504.504 0 0 1-.166.388c-.612 2.054-1 3.275-1.223 3.83M241.266 104.567c.723 0 1.223.166 1.557.499.333.333.5.666.5 1v.166c0 .277-.167.666-.5 1.276-.167.278-.445.555-.779.833-.333.222-.722.388-1.056.388-.333 0-.667 0-1-.055-.333-.056-.5-.056-.611-.056-.112 0-.167.056-.223.111-.11.111-.11.389-.11.777.055.333.11.555.277.722.167.11.334.222.556.222a2 2 0 0 0 .611-.111c.223-.111.445-.222.667-.444.278-.222.445-.333.612-.333.166 0 .277.055.444.222.167.166.222.277.222.444-.055.277-.333.666-.833 1.11-.556.444-1.112.666-1.779.666a2.462 2.462 0 0 1-1.667-.61c-.445-.39-.667-.944-.667-1.666 0-.277 0-.555.056-.888.055-.333.11-.721.333-1.165.167-.444.5-.944.89-1.499a3.353 3.353 0 0 1 1.278-1.11c.5-.388.889-.5 1.222-.5zm-.166 1.332c-.167 0-.39.11-.667.388-.278.278-.556.555-.778.888 0 .167.222.222.61.222.39 0 .612-.055.723-.055.112-.056.278-.222.556-.444.223-.222.39-.444.39-.5 0-.277-.223-.444-.612-.444h-.222v-.055zM243.49 110.95c0-.112-.056-.278-.223-.445-.167-.166.222-1.11 1.112-2.83.055-.056.166-.222.278-.389.11-.166.166-.277.222-.333 0-.055 0-.11.056-.11.055-.056.055-.056.11-.056l.167-.278c.056-.11.278-.388.723-.777.445-.388.778-.721 1-.888.278-.166.5-.222.778-.222s.5.111.723.278c0 .055.111.11.222.222.223.166.778.61 1.556 1.332l-.333.888c-.278.832-.222 1.554.222 2.22.111.277.334.388.612.444.278.055.444.166.444.388 0 .5-.166.777-.5.833-.945.11-1.667-.278-2.167-1.166a1.878 1.878 0 0 1-.334-.832c-.111.11-.222.277-.445.5-1.667 1.664-2.945 2.275-3.779 1.72a2.115 2.115 0 0 0-.333-.278c0-.166-.112-.222-.112-.222zm4.335-4.83c-.445 0-1.223.889-2.224 2.61-.166.277-.333.665-.5 1.165.223 0 .556-.167 1.112-.666.111-.111.278-.222.444-.389.167-.166.334-.277.39-.333.11-.055.222-.166.333-.277.222-.222.445-.5.611-.777l.39-.666c-.167-.389-.334-.666-.556-.666zM252.938 105.677l.167-.722c.222-.388.555-1.221 1-2.553.5-1.332.722-2.054.722-2.165 0-.11.056-.222.112-.333.055-.11.166-.11.278-.11.055-.056.222-.112.555-.112l.278.278c.278.277.445.5.445.721 0 .222-.056.444-.111.61-.056.223-.334.722-.667 1.5-.056.11-.111.277-.223.443-.11.167-.166.333-.222.444-.055.111-.055.167-.055.167s0 .055-.056.111c0 .055-.056.111-.056.222l-.166.333c-.5 1.055-.723 1.665-.723 1.776a.424.424 0 0 1-.111.278c-.056 0-.111.055-.111.166v.056c0 .11-.111.444-.278.943-.5 1.776-.778 2.886-.778 3.33 0 .444-.167.722-.445.888-.333.111-.667-.11-.833-.555-.223-.444-.278-1.054-.112-1.72.112-.333.223-.61.223-.777.055-.222.166-.666.389-1.277.222-.61.333-.943.389-1.11.11 0 .166-.11.166-.388 0-.111.056-.333.223-.444M255.439 105.122a.42.42 0 0 1-.111-.222c0-.056.055-.222.166-.389.112-.167.223-.278.278-.278h.556c.278 0 .5-.055.556-.055a.434.434 0 0 0 .222-.222c.056-.111.167-.333.39-.666.444-.833.722-1.332.889-1.443.166-.111.389-.222.61-.222.223 0 .445.055.668.166.167.278.167.5 0 .777-.056.167-.167.333-.334.555-.166.222-.278.389-.333.555-.222.278-.222.444-.111.5.166 0 .5 0 1.056-.111.555-.111.889.111.945.61.055.278 0 .445-.112.556-.11.055-.389.11-.833.11-.39.056-.778.112-1.112.112-.333 0-.556 0-.611.055a.5.5 0 0 0-.334.333c-.055 0-.055.111-.11.222-.056.167-.223.444-.445.888a16.872 16.872 0 0 0-.723 2.886c-.056.222 0 .444.056.5.055.11.277.166.61.222.612.055 1.224-.111 1.946-.555l.5-.278c.112-.166.223-.055.39.222a.42.42 0 0 1 .11.222c0 .5-.277.833-.778 1.166-.5.333-1 .5-1.556.61-.555.111-.945.111-1.222.056a1.35 1.35 0 0 1-.779-.5c-.222-.277-.389-.5-.444-.721l-.111-.167c-.056-.055-.111-.388-.056-.943 0-.555.056-.944.111-1.221.056-.278.278-.888.612-1.832l.5-1.054-.723-.222c-.222-.111-.278-.111-.333-.222M266.11 109.673l.111-1.388c0-.277-.056-.388-.222-.388-.223 0-.667.222-1.279.666a10.42 10.42 0 0 0-1.834 1.72c-.389.555-.778.833-1.111.833a1.057 1.057 0 0 1-.612-.389c-.166-.222-.277-.444-.277-.721 0-.278.166-1 .555-2.22.056-.278.111-.61.278-.944.167-.333.278-.721.39-.999.11-.277.333-.999.666-1.943.334-.999.612-1.665.778-2.053.167-.389.278-.722.334-.888.11-.278.222-.5.278-.722 0-.11.055-.166.222-.277.167-.111.278-.111.445-.111.166 0 .333.11.5.388.333.444.389.888.167 1.332-.223.444-.556 1.332-1 2.72-.501 1.388-.779 2.22-.946 2.553l-.222.389-.278 1.11v.055a14.46 14.46 0 0 1 1.5-1.332c.445-.333.668-.5.723-.555.056-.055.223-.166.5-.388.278-.222.667-.333 1.112-.333.222 0 .445.166.723.444.277.277.389.666.389 1.054v.278c0 .277-.112.943-.39 2.053.056 0 .167 0 .278-.055.223 0 .445.055.556.166a.96.96 0 0 0 .223.167s.055.055.055.11c0 .278-.167.5-.445.722a1.48 1.48 0 0 1-.889.333c-.333 0-.611-.11-.833-.388-.334-.333-.445-.61-.445-1" fill="#11A7F2"/><path d="M78.532 16.65c0 7.383-2.945 12.156-8.781 14.32l11.672 16.485H68.75L58.524 32.746H51.41v14.709H41.073V1.332H58.58c7.17 0 12.283 1.221 15.34 3.608 3.112 2.442 4.612 6.327 4.612 11.71zm-12.394 5.495c1.279-1.165 1.89-2.941 1.89-5.439 0-2.497-.667-4.162-2-5.106-1.335-.944-3.613-1.388-6.948-1.388h-7.67v13.654h7.503c3.557-.055 5.947-.61 7.225-1.72zM109.99 38.352c5.058 0 9.226-1.998 12.394-5.994l6.614 6.771c-5.225 5.883-11.394 8.825-18.508 8.825-7.114 0-12.95-2.22-17.563-6.716-4.613-4.495-6.891-10.157-6.891-16.983 0-6.827 2.334-12.544 7.058-17.095 4.669-4.551 10.449-6.882 17.23-6.882 7.558 0 13.894 2.886 19.007 8.658l-6.391 7.27c-3.28-4.051-7.337-6.05-12.172-6.05-3.89 0-7.17 1.277-9.949 3.775-2.779 2.553-4.112 5.939-4.112 10.213 0 4.273 1.278 7.714 3.89 10.323 2.557 2.609 5.67 3.885 9.393 3.885M168.625 5.44c3.224 2.774 4.836 6.993 4.836 12.654 0 5.717-1.668 9.88-5.003 12.488-3.334 2.664-8.392 3.94-15.228 3.94h-6.17V47.4H136.78V1.332h16.34c7.058 0 12.227 1.388 15.506 4.107zm-7.614 18.149c1.223-1.388 1.834-3.386 1.834-6.05 0-2.664-.778-4.551-2.39-5.661-1.612-1.11-4.113-1.666-7.503-1.666h-5.891v15.486h6.947c3.446 0 5.78-.722 7.003-2.11z" fill="#0D0D58"/><path d="M202.361 38.352c5.058 0 9.226-1.998 12.394-5.994l6.614 6.771c-5.224 5.883-11.393 8.825-18.507 8.825-7.114 0-12.95-2.22-17.563-6.716-4.613-4.495-6.892-10.157-6.892-16.983 0-6.827 2.334-12.544 7.058-17.095 4.67-4.551 10.45-6.882 17.23-6.882 7.559 0 13.894 2.886 19.008 8.658l-6.392 7.27c-3.279-4.051-7.336-6.05-12.172-6.05-3.89 0-7.17 1.277-9.948 3.775-2.779 2.553-4.113 5.939-4.113 10.213 0 4.273 1.278 7.714 3.89 10.323 2.557 2.609 5.725 3.885 9.393 3.885" fill="#11A7F2"/><path fill="#0D0D58" d="M257.884 1.332h10.282v46.123h-10.282v-18.15h-18.396v18.15h-10.282V1.332h10.282v19.26h18.396"/><path d="M35.626 5.273c-.222-.5-.834-.61-1.556-.167L1.39 24.81c-.723.388-1.001.943-1.001 1.665 0 .721.334 1.443 1.278 1.61l8.115 1.664-2.446 16.984c-.11.777.278 1.277.945 1.166.667-.111 1.445-.722 1.89-1.555l7.836-12.432 9.226 4.995c.334.333 1.112.444 1.612.111.223-.11.612-.5.834-.721.667-.666.778-1.887.278-3.164l-5.113-12.044 10.17-15.652c.556-.721.779-1.61.612-2.164M13.45 13.21c3.613 0 6.503-2.942 6.503-6.494 0-3.608-2.946-6.494-6.503-6.494S6.947 3.164 6.947 6.716c0 3.607 2.946 6.494 6.503 6.494" fill="#11A7F2"/></g></svg>